<svg xmlns="http://www.w3.org/2000/svg" width="62.202" height="64.521" viewBox="0 0 62.202 64.521"><g transform="translate(0 1.75)" opacity="0.4"><line y2="21.03" transform="translate(39.8 39.991)" fill="none" stroke="#7a8b99" stroke-miterlimit="10" stroke-width="3.5"/><line y2="15.861" transform="translate(20.55 45.16)" fill="#fff" stroke="#7a8b99" stroke-miterlimit="10" stroke-width="3.5"/><path d="M0,0H62.2" transform="translate(0 61.021)" fill="none" stroke="#7a8b99" stroke-width="3.5"/><path d="M66.753,22.4a11.025,11.025,0,0,1-2.944-8.623c.015-.17.02-.34.02-.51,0-4.839-5.079-8.763-11.342-8.763S41.144,8.424,41.144,13.263c0,.17,0,.345.02.51A11.049,11.049,0,0,1,38.219,22.4a11.841,11.841,0,0,0-3.589,8.293c0,7.623,7.993,13.8,17.856,13.8s17.856-6.179,17.856-13.8A11.893,11.893,0,0,0,66.753,22.4Z" transform="translate(-12.683 -4.5)" fill="none" stroke="#7a8b99" stroke-miterlimit="10" stroke-width="3.5"/><path d="M29.089,47.307a8.46,8.46,0,0,1-2.254-6.6q.015-.195.015-.39c0-3.7-3.884-6.708-8.678-6.708s-8.678,3-8.678,6.708q0,.195.015.39a8.46,8.46,0,0,1-2.254,6.6A9.06,9.06,0,0,0,4.51,53.655c0,5.834,6.119,10.563,13.667,10.563s13.667-4.729,13.667-10.563A9.113,9.113,0,0,0,29.089,47.307Z" transform="translate(2.379 -19.058)" fill="#fff" stroke="#7a8b99" stroke-miterlimit="10" stroke-width="3.5"/></g></svg>