<svg xmlns="http://www.w3.org/2000/svg" width="53.359" height="56.78" viewBox="0 0 53.359 56.78">
  <g id="Grupo_157" data-name="Grupo 157" transform="translate(1.75 1.75)">
    <path id="Caminho_62" data-name="Caminho 62" d="M23.68,62.63V80.066H7.86V48.96" transform="translate(-6.18 -26.786)" fill="none" stroke="#00808f" stroke-miterlimit="10" stroke-width="3.5"/>
    <path id="Caminho_63" data-name="Caminho 63" d="M85.2,48.96V80.066H69.38V62.63" transform="translate(-37.017 -26.786)" fill="none" stroke="#00808f" stroke-miterlimit="10" stroke-width="3.5"/>
    <line id="Linha_80" data-name="Linha 80" x1="22.842" transform="translate(13.509 35.844)" fill="none" stroke="#00808f" stroke-miterlimit="10" stroke-width="3.5"/>
    <path id="Caminho_67" data-name="Caminho 67" d="M41.953,23.77H29.49v8.314a6.233,6.233,0,0,0,6.234,6.234h0a6.233,6.233,0,0,0,6.234-6.234,6.233,6.233,0,0,0,6.234,6.234h0a6.233,6.233,0,0,0,6.234-6.234V23.77Z" transform="translate(-17.022 -14.159)" fill="none" stroke="#ffd45e" stroke-miterlimit="10" stroke-width="3.5"/>
    <path id="Caminho_68" data-name="Caminho 68" d="M16.958,14.111v8.314a6.233,6.233,0,0,1-6.234,6.234h0A6.233,6.233,0,0,1,4.49,22.425V14.111L10.206,4.5H48.638l5.711,9.611v8.314a6.233,6.233,0,0,1-6.234,6.234h0a6.233,6.233,0,0,1-6.234-6.234V14.609" transform="translate(-4.49 -4.5)" fill="none" stroke="#ffd45e" stroke-miterlimit="10" stroke-width="3.5"/>
    <line id="Linha_83" data-name="Linha 83" x2="49.854" transform="translate(0.004 9.611)" fill="none" stroke="#ffd45e" stroke-miterlimit="10" stroke-width="3.5"/>
    <line id="Linha_84" data-name="Linha 84" y1="8.314" transform="translate(24.928 9.611)" fill="none" stroke="#ffd45e" stroke-miterlimit="10" stroke-width="3.5"/>
  </g>
</svg>
