<svg xmlns="http://www.w3.org/2000/svg" width="63.539" height="70.997" viewBox="0 0 63.539 70.997">
  <g id="Grupo_159" data-name="Grupo 159" transform="translate(1.75 1.881)">
    <path id="Caminho_69" data-name="Caminho 69" d="M18.234,140.525v11.928H4.5V128.6H50.61v23.853H30.081V140.525" transform="translate(-4.5 -85.087)" fill="none" stroke="#00808f" stroke-miterlimit="10" stroke-width="3.5"/>
    <path id="Caminho_70" data-name="Caminho 70" d="M133,56.06H119.036l-3.506,49.286h20.981Z" transform="translate(-76.601 -37.981)" fill="#fff" stroke="#00808f" stroke-miterlimit="10" stroke-width="3.5"/>
    <path id="Caminho_71" data-name="Caminho 71" d="M11.823,16.257A17.264,17.264,0,0,1,8.05,11.18" transform="translate(-6.805 -8.836)" fill="none" stroke="#ffd45e" stroke-miterlimit="10" stroke-width="3.5"/>
    <path id="Caminho_72" data-name="Caminho 72" d="M69.568,10c-.193-2.163-2.3-3.566-4.05-4.618-3.156-1.753-7.012-.7-9.817,1.4-4.207,3.156-7.714,6.662-12.272,8.765A17.066,17.066,0,0,1,29.18,14.525" transform="translate(-20.528 -4.496)" fill="none" stroke="#ffd45e" stroke-miterlimit="10" stroke-width="3.5"/>
    <line id="Linha_85" data-name="Linha 85" x2="14.975" transform="translate(41.931 24.773)" fill="none" stroke="#00808f" stroke-miterlimit="10" stroke-width="3.5"/>
    <line id="Linha_86" data-name="Linha 86" x1="17.457" transform="translate(10.93 55.438)" fill="none" stroke="#00808f" stroke-miterlimit="10" stroke-width="3.5"/>
  </g>
</svg>
