<svg id="np_tax_2850510_000000" xmlns="http://www.w3.org/2000/svg" width="56.916" height="67.246" viewBox="0 0 56.916 67.246">
  <path id="Caminho_478" data-name="Caminho 478" d="M56.122,43.911l-2.314,2.314L48.253,51.78,41.534,58.5l-5.808,5.808c-.937.937-1.907,1.863-2.83,2.83l-.044.044a1.457,1.457,0,0,0,2.061,2.061l2.314-2.314,5.555-5.555L49.5,54.653l5.808-5.808c.937-.937,1.907-1.863,2.83-2.83l.044-.044a1.457,1.457,0,1,0-2.061-2.061Z" transform="translate(-17.08 -14.718)" fill="#ffd45e"/>
  <path id="Caminho_479" data-name="Caminho 479" d="M38.332,49.375c-.073.073-.151.146-.233.218-.035.035-.082.064-.122.1-.122.111.082-.073.087-.064-.058-.023-.518.326-.611.37-.044.023-.093.044-.14.064-.14.073.111-.044.116-.044a1.956,1.956,0,0,0-.285.1,5.018,5.018,0,0,1-.678.166c-.277.052.268-.015-.006,0-.1.006-.2.015-.3.015h-.3c-.064,0-.422-.044-.2-.006s-.093-.023-.146-.029c-.116-.023-.227-.052-.335-.082s-.189-.058-.285-.093c-.044-.015-.093-.035-.14-.052-.18-.064.239.122.073.029s-.364-.18-.53-.3c-.044-.029-.314-.2-.146-.093s-.015-.015-.058-.052-.111-.093-.16-.14c-.151-.146-.291-.306-.437-.466-.111-.122.073.082.064.087.006-.015-.082-.116-.087-.122-.064-.1-.131-.2-.189-.306s-.111-.21-.16-.314c-.073-.14.044.111.044.116a.752.752,0,0,0-.052-.14,4.265,4.265,0,0,1-.181-.617c-.023-.093-.023-.2-.052-.291,0,0,.029.306.023.14a.746.746,0,0,0-.015-.146,6.113,6.113,0,0,1,.006-.693c.015-.277-.058.268,0-.006.023-.093.035-.2.058-.291.052-.218.18-.443.21-.664,0,.006-.122.256-.044.116.023-.044.044-.093.064-.14.044-.087.093-.18.146-.268s.111-.175.166-.262c.023-.029.116-.181.006-.023s.023-.023.052-.058a5.44,5.44,0,0,1,.48-.489c.035-.035.082-.064.122-.1.122-.111-.082.073-.087.064.029.015.262-.175.3-.2.087-.052.175-.1.262-.151.052-.029.326-.181.146-.082s.122-.044.2-.073c.111-.035.227-.064.335-.093s.2-.044.291-.064a.632.632,0,0,0,.146-.023s-.306.029-.14.023c.233-.006.46-.029.693-.015.058,0,.378.044.151.006s.093.023.146.029a4.758,4.758,0,0,1,.626.175c.044.015.093.035.14.052.16.058-.122-.052-.116-.052.073-.015.247.122.314.16.087.052.175.1.262.16l.131.087c.18.116-.035.015-.044-.044.023.1.384.344.466.431a3.616,3.616,0,0,1,.239.277c.111.122-.073-.082-.064-.087a1.026,1.026,0,0,0,.116.166c.064.1.122.2.18.306.035.073.093.268.16.314-.006,0-.1-.268-.052-.116.023.064.052.122.073.189.044.122.082.256.116.384.029.111.052.227.073.344.052.247-.023-.285,0,.058a5.5,5.5,0,0,1,0,.693c-.029.349.052-.256-.006.1-.023.116-.044.227-.073.344s-.064.227-.1.335c-.015.052-.035.093-.052.14-.073.2-.015-.035.029-.073-.064.044-.122.247-.16.314-.064.116-.14.233-.21.349-.006.015-.093.116-.087.122-.015-.029.189-.227.035-.052a1.594,1.594,0,0,1-.265.323,1.457,1.457,0,0,0,2.061,2.061,6.167,6.167,0,0,0,1.164-6.972,6.086,6.086,0,0,0-5.968-3.406A6.092,6.092,0,1,0,40.4,51.436a1.471,1.471,0,0,0,0-2.061,1.486,1.486,0,0,0-2.067,0Z" transform="translate(-16.46 -14.091)" fill="#ffd45e"/>
  <path id="Caminho_480" data-name="Caminho 480" d="M62.015,73.027c-.073.073-.151.146-.233.218-.035.035-.082.064-.122.1-.122.111.082-.073.087-.064-.058-.023-.518.326-.611.37-.044.023-.093.044-.14.064-.14.073.111-.044.116-.044a1.956,1.956,0,0,0-.285.1,5.018,5.018,0,0,1-.678.166c-.277.052.268-.015-.006,0-.1.006-.2.015-.3.015h-.3c-.064,0-.422-.044-.2-.006s-.093-.023-.146-.029c-.116-.023-.227-.052-.335-.082s-.189-.058-.285-.093c-.044-.015-.093-.035-.14-.052-.18-.064.239.122.073.029s-.364-.18-.53-.3c-.044-.029-.314-.2-.146-.093s-.015-.015-.058-.052-.111-.093-.16-.14c-.151-.146-.291-.306-.437-.466-.111-.122.073.082.064.087.006-.015-.082-.116-.087-.122-.064-.1-.131-.2-.189-.306s-.111-.21-.16-.314c-.073-.14.044.111.044.116A.751.751,0,0,0,56.8,72a4.266,4.266,0,0,1-.18-.617c-.023-.093-.023-.2-.052-.291,0,0,.029.306.023.14a.747.747,0,0,0-.015-.146,6.112,6.112,0,0,1,.006-.693c.015-.277-.058.268,0-.006.023-.093.035-.2.058-.291.052-.218.18-.442.21-.664,0,.006-.122.256-.044.116.023-.044.044-.093.064-.14.044-.087.093-.18.146-.268s.111-.175.166-.262c.023-.029.116-.18.006-.023s.023-.023.052-.058a5.439,5.439,0,0,1,.48-.489c.035-.035.082-.064.122-.1.122-.111-.082.073-.087.064.029.015.262-.175.3-.2.087-.052.175-.1.262-.151.052-.029.326-.18.146-.082s.122-.044.2-.073c.111-.035.227-.064.335-.093s.2-.044.291-.064a.632.632,0,0,0,.146-.023s-.306.029-.14.023c.233-.006.46-.029.693-.015.058,0,.378.044.151.006s.093.023.146.029a4.761,4.761,0,0,1,.626.175c.044.015.093.035.14.052.16.058-.122-.052-.116-.052.073-.015.247.122.314.16.087.052.175.1.262.16l.131.087c.18.116-.035.015-.044-.044.023.1.384.344.466.431a3.612,3.612,0,0,1,.239.277c.111.122-.073-.082-.064-.087a1.026,1.026,0,0,0,.116.166c.064.1.122.2.18.306.035.073.093.268.16.314-.006,0-.1-.268-.052-.116.023.064.052.122.073.189.044.122.081.256.116.384.029.111.052.227.073.344.052.247-.023-.285,0,.058a5.5,5.5,0,0,1,0,.693c-.029.349.052-.256-.015.1-.023.116-.044.227-.073.344s-.064.227-.1.335c-.015.052-.035.093-.052.14-.073.2-.015-.035.029-.073-.064.044-.122.247-.16.314-.064.116-.14.233-.21.349-.006.015-.093.116-.087.122-.015-.029.189-.227.035-.052a1.69,1.69,0,0,1-.256.323,1.457,1.457,0,0,0,2.061,2.061,6.167,6.167,0,0,0,1.164-6.972,6.086,6.086,0,0,0-5.968-3.406,6.092,6.092,0,1,0,4.809,10.378,1.471,1.471,0,0,0,0-2.061,1.5,1.5,0,0,0-2.067,0Z" transform="translate(-22.493 -20.116)" fill="#ffd45e"/>
  <path id="Caminho_481" data-name="Caminho 481" d="M68.735,67.148V26.723c0-.78.029-1.566,0-2.344a1.9,1.9,0,0,0-.617-1.287c-.364-.378-.728-.751-1.1-1.13-1.412-1.447-2.83-2.905-4.245-4.352-1.8-1.84-3.6-3.691-5.392-5.531Q55.067,9.7,52.747,7.329c-.646-.67-1.275-1.4-1.965-2.015a2.019,2.019,0,0,0-1.557-.431H17.064a5.449,5.449,0,0,0-2.672.632,5.07,5.07,0,0,0-2.556,4.367c-.006.539,0,1.077,0,1.616V66.2a6.935,6.935,0,0,0,.547,3.208,5.006,5.006,0,0,0,4.454,2.722H63.515a5.746,5.746,0,0,0,1.572-.18,5.045,5.045,0,0,0,3.648-4.8,1.456,1.456,0,1,0-2.911,0c0,.087,0,.166-.006.256s-.087.2,0,.058c.006-.029.006-.064.015-.093-.015.064-.023.131-.035.2a1.682,1.682,0,0,1-.052.189c-.015.064-.044.122-.058.18-.082.277.029-.087.035-.082.029.052-.227.422-.247.466s-.073.1-.111.16c-.1.166.239-.256.023-.035-.087.087-.175.189-.262.268a1.241,1.241,0,0,1-.146.122c.015.006.277-.181.029-.029-.14.087-.268.166-.413.239-.256.14.035.015.035-.006,0,.006-.2.064-.18.064-.122.044-.256.064-.378.1-.314.087.256-.015.044,0-.087.006-.166.015-.256.015H19.7c-.961,0-1.921.015-2.882,0-.073,0-.364.029-.408-.023.052.064.314.052.044-.006-.064-.015-.131-.029-.189-.044-.082-.023-.151-.052-.233-.073-.218-.064.087.035.082.035-.052.029-.37-.189-.422-.227a1.5,1.5,0,0,0-.16-.1c-.262-.166.166.166.029.023-.093-.1-.21-.189-.306-.3a1.8,1.8,0,0,1-.122-.146c.006-.006.175.256.052.064-.087-.14-.175-.268-.247-.408-.035-.064-.073-.291-.044-.087s.006.015-.015-.052c-.044-.14-.082-.285-.116-.422-.058-.247.015.052.006.093.006-.058-.015-.14-.015-.2s-.006-.131-.006-.2V9.872c0-.064,0-.14.006-.2,0-.035.006-.064.006-.1.015-.16.015-.131-.015.087a1.769,1.769,0,0,1,.087-.384c.015-.064.044-.122.058-.18.087-.306-.122.2-.023.035.082-.116.131-.256.2-.378.035-.052.073-.111.1-.16.175-.268-.21.227.006-.006.087-.093.175-.189.262-.268.044-.035.189-.247.073-.073s.015-.006.087-.052c.111-.073.218-.14.326-.2a.89.89,0,0,1,.175-.082c-.2.082-.227.093-.082.035.029-.006.058-.023.093-.029.14-.044.285-.073.431-.111.2-.052-.37.015-.044.006a1.6,1.6,0,0,0,.2-.015H49.742c-.344-.146-.684-.285-1.025-.431.582.6,1.159,1.188,1.741,1.782l4.178,4.285q2.533,2.6,5.06,5.188c1.464,1.508,2.932,3,4.4,4.512.7.722,1.392,1.491,2.125,2.183l.029.029c-.146-.344-.285-.684-.431-1.025v37.56c0,1.732-.035,3.464,0,5.2v.073a1.46,1.46,0,0,0,2.92,0Z" transform="translate(-11.833 -4.883)" fill="#00808f"/>
  <path id="Caminho_482" data-name="Caminho 482" d="M80.765,23.291c-.582-.6-1.159-1.188-1.741-1.782l-4.178-4.285q-2.533-2.6-5.06-5.188c-1.464-1.508-2.932-3-4.4-4.512C64.686,6.8,64,6.039,63.266,5.341l-.029-.029a1.478,1.478,0,0,0-2.495,1.031v13.6a6.7,6.7,0,0,0,.588,3.2,5.071,5.071,0,0,0,4.576,2.635H72.87c2.242,0,4.489.029,6.731,0h.122a1.456,1.456,0,0,0,0-2.911H65.714c-.087,0-.166,0-.256-.006-.044,0-.1-.015-.151-.015.306-.029.16.023-.006-.015-.111-.029-.218-.058-.326-.093-.344-.116.166.1-.058-.015-.116-.058-.227-.116-.335-.18-.052-.035-.111-.073-.16-.1-.218-.14.131.151.029.023-.064-.082-.166-.151-.239-.227-.044-.044-.087-.093-.131-.14-.16-.16.052.073.052.073a2.044,2.044,0,0,1-.384-.664c.006-.006.122.349.035.082-.015-.044-.029-.093-.044-.14-.035-.122-.058-.256-.093-.378-.044-.151.015.131.015.14.006-.058-.015-.14-.015-.2s-.006-.14-.006-.2V12.928c0-2.148.058-4.309,0-6.457V6.354c-.83.344-1.659.684-2.48,1.025.582.6,1.159,1.188,1.741,1.782l4.178,4.285q2.533,2.6,5.06,5.188c1.464,1.508,2.932,3,4.4,4.512.7.728,1.4,1.479,2.125,2.183l.029.029a1.465,1.465,0,0,0,2.076-2.067Z" transform="translate(-24.291 -4.887)" fill="#00808f"/>
</svg>
