<svg xmlns="http://www.w3.org/2000/svg" width="38.483" height="64.727" viewBox="0 0 38.483 64.727">
  <g id="Grupo_1190" data-name="Grupo 1190" transform="translate(-25.298 -3.3)">
    <g id="Grupo_1188" data-name="Grupo 1188" transform="translate(31.934 3.3)">
      <path id="Caminho_389" data-name="Caminho 389" d="M44.489,32.873h4.3c6.012-.46,10.692-4.888,10.689-10.262V15.739a2.954,2.954,0,0,0-3.122-2.749H54.406V4.674a1.574,1.574,0,0,0-3.122,0V12.99H41.918V4.674a1.574,1.574,0,0,0-3.122,0V12.99H36.922A2.954,2.954,0,0,0,33.8,15.739v6.872C33.8,27.986,38.478,32.414,44.489,32.873ZM36.844,22.542V15.67H56.357v6.872c0,4.175-3.844,7.559-8.586,7.559H45.43c-4.681-.037-8.466-3.369-8.508-7.491Z" transform="translate(-33.8 -3.3)" fill="#ffd45e"/>
    </g>
    <g id="Grupo_1189" data-name="Grupo 1189" transform="translate(25.298 32.564)">
      <path id="Caminho_390" data-name="Caminho 390" d="M63.311,55.576a1.677,1.677,0,0,0-1.171-.412H59.955A18.082,18.082,0,0,0,46.3,61.83V46.024c.343-.01.681-.038,1.017-.074H42.235c.336.036.674.064,1.017.074v6.254A18,18,0,0,0,29.2,45.2H26.939A1.5,1.5,0,0,0,25.3,46.5c0,.047,0,.094,0,.141V48.5c.4,8.024,7.743,14.428,16.859,14.707h1.015V79.286a1.574,1.574,0,0,0,3.122,0V73.307H47C56.084,72.993,63.381,66.6,63.78,58.6V56.607A1.293,1.293,0,0,0,63.311,55.576ZM42.783,60.524l-.546-.069c-7.423-.277-13.381-5.492-13.737-12.026v-.55h.624c7.421.314,13.345,5.56,13.659,12.1Zm17.8-1.993c-.318,6.522-6.251,11.747-13.659,12.026h-.546v-.55c.357-6.5,6.279-11.681,13.659-11.958h.546Z" transform="translate(-25.298 -45.197)" fill="#00808f"/>
    </g>
  </g>
</svg>
