<svg xmlns="http://www.w3.org/2000/svg" width="46.968" height="62.304" viewBox="0 0 46.968 62.304">
  <g id="np_light-bulb_1779568_000000" transform="translate(-12.313 0.501)">
    <path id="Caminho_472" data-name="Caminho 472" d="M46.985,49.985H24.611a.955.955,0,0,1-.954-.956V41.475l-.068-.041a22.218,22.218,0,0,1-10.68-21.054C13.926,9.3,23.3.549,34.707,0h1.1c12.67,0,22.976,10.067,22.976,22.435A22.2,22.2,0,0,1,47.954,41.47v7.552a.956.956,0,0,1-.968.963ZM25.567,48.068H46.029v-6.7a1.811,1.811,0,0,1,.934-1.538,20.3,20.3,0,0,0,9.91-17.394c0-11.641-10.007-21.061-22.085-20.5A20.88,20.88,0,0,0,14.807,20.551a20.313,20.313,0,0,0,9.77,19.229,1.962,1.962,0,0,1,.983,1.661Z" fill="#ffd45e" stroke="#ffcf49" stroke-width="1"/>
    <path id="Caminho_473" data-name="Caminho 473" d="M26.172,28.974a.952.952,0,0,1-.954-.879,14.033,14.033,0,0,1,0-2.252A15.142,15.142,0,0,1,39.742,12.432a.966.966,0,1,1,.123,1.929,13.192,13.192,0,0,0-12.7,11.675,12.528,12.528,0,0,0,0,1.951A.958.958,0,0,1,26.268,29Z" transform="translate(-4.719 -4.749)" fill="#00808f"/>
    <path id="Caminho_474" data-name="Caminho 474" d="M33.953,52.431a.965.965,0,0,1-.5-.145,15.09,15.09,0,0,1-5.164-5.275.956.956,0,0,1,1.654-.961,13.211,13.211,0,0,0,4.527,4.621.956.956,0,0,1-.514,1.76Z" transform="translate(-5.859 -17.409)" fill="#00808f"/>
    <path id="Caminho_475" data-name="Caminho 475" d="M47.962,96.6H43.547a4.506,4.506,0,0,1-4.437-4.478,1.026,1.026,0,0,1,1.038-1.016H51.4a.958.958,0,0,1,.983,1.045A4.505,4.505,0,0,1,47.962,96.6Zm-6.716-3.522a2.539,2.539,0,0,0,2.3,1.605h4.416a2.534,2.534,0,0,0,2.286-1.605Z" transform="translate(-10.042 -34.801)" fill="#00808f"/>
    <path id="Caminho_476" data-name="Caminho 476" d="M47.411,87.96H37.624a7.214,7.214,0,0,1-7.257-7.168V78.731a.954.954,0,0,1,.954-.954H53.693a.956.956,0,0,1,.956.954v2.062a7.218,7.218,0,0,1-7.238,7.168ZM32.3,79.721v1.1a5.3,5.3,0,0,0,5.321,5.2h9.787a5.3,5.3,0,0,0,5.328-5.253v-1.1Z" transform="translate(-6.703 -29.709)" fill="#00808f"/>
    <path id="Caminho_477" data-name="Caminho 477" d="M53.712,67.3H30.741a.957.957,0,0,1,0-1.914H53.712a.957.957,0,1,1,0,1.914Z" transform="translate(-6.481 -24.978)" fill="#00808f"/>
  </g>
</svg>
