<svg xmlns="http://www.w3.org/2000/svg" width="42.883" height="29.609" viewBox="0 0 42.883 29.609">
  <g id="noun_Email_1778559" transform="translate(-8 -973.362)">
    <path id="Caminho_431" data-name="Caminho 431" d="M12.084,973.362A4.152,4.152,0,0,0,8,977.558v21.2a4.166,4.166,0,0,0,4.084,4.212H46.8a4.166,4.166,0,0,0,4.084-4.212v-21.2a4.152,4.152,0,0,0-4.084-4.2H12.084Zm0,2.042H46.8a2.029,2.029,0,0,1,.846.191L30.765,991.214a1.833,1.833,0,0,1-2.6,0L11.254,975.6A2.019,2.019,0,0,1,12.084,975.4Zm-2.01,1.882,11.981,11.072L10.3,999.8a2.28,2.28,0,0,1-.255-1.037v-21.2a2.348,2.348,0,0,1,.032-.271Zm38.735.016a2.31,2.31,0,0,1,.032.255v21.2a2.292,2.292,0,0,1-.239,1.021L36.875,988.342,48.808,977.3ZM35.392,989.714l11.47,11.215H12.036l11.518-11.2,3.223,2.983a3.966,3.966,0,0,0,5.376,0l3.238-3Z" fill="#fff"/>
  </g>
</svg>
