<svg id="np_tag_2059186_000000" xmlns="http://www.w3.org/2000/svg" width="61.119" height="61.119" viewBox="0 0 61.119 61.119">
  <path id="Caminho_483" data-name="Caminho 483" d="M24.2,61.119a7.362,7.362,0,0,1-5.25-2.173L2.173,42.172a7.418,7.418,0,0,1,0-10.49L30.5,3.357A11.383,11.383,0,0,1,38.6,0H54.752A6.376,6.376,0,0,1,61.12,6.367V22.521a11.383,11.383,0,0,1-3.357,8.1L29.44,58.947A7.367,7.367,0,0,1,24.2,61.119ZM38.6,2.547a8.859,8.859,0,0,0-6.3,2.609L3.973,33.479a4.876,4.876,0,0,0,0,6.89L20.749,57.146a4.993,4.993,0,0,0,6.888,0L55.965,28.819a8.849,8.849,0,0,0,2.607-6.3V6.367a3.825,3.825,0,0,0-3.82-3.82Z" transform="translate(-0.001 0)" fill="#00808f"/>
  <path id="Caminho_484" data-name="Caminho 484" d="M73.033,25.232A6.366,6.366,0,1,1,79.4,18.867,6.372,6.372,0,0,1,73.033,25.232Zm0-10.185a3.82,3.82,0,1,0,3.82,3.82A3.825,3.825,0,0,0,73.033,15.047Z" transform="translate(-25.922 -4.86)" fill="#ffd45e"/>
</svg>
