<svg xmlns="http://www.w3.org/2000/svg" width="27.649" height="66.917" viewBox="0 0 27.649 66.917">
  <path id="np_person_2510960_000000" d="M44.824,4.031a8.942,8.942,0,0,0-5.639,15.984H36.252A5.242,5.242,0,0,0,31,25.222V43.117a5.261,5.261,0,0,0,5.252,5.23h.978l1.046,21.214a1.456,1.456,0,0,0,1.455,1.387H49.918a1.456,1.456,0,0,0,1.455-1.387l1.046-21.214H53.4a5.261,5.261,0,0,0,5.252-5.23V25.222A5.241,5.241,0,0,0,53.4,20.015H50.463A8.942,8.942,0,0,0,44.824,4.031Zm0,2.865a6.094,6.094,0,1,1-6.162,6.094A6.114,6.114,0,0,1,44.824,6.9Zm-8.572,16.03H53.4a2.276,2.276,0,0,1,2.342,2.3V43.117A2.3,2.3,0,0,1,53.4,45.437h-.841l.387-7.89a1.457,1.457,0,0,0-2.91-.159l-1.5,30.651H41.118l-1.5-30.651a1.457,1.457,0,1,0-2.91.159l.387,7.89h-.841a2.3,2.3,0,0,1-2.342-2.319V25.223a2.276,2.276,0,0,1,2.342-2.3Z" transform="translate(-31 -4.031)" fill="#00808f"/>
</svg>
