<svg xmlns="http://www.w3.org/2000/svg" width="35.199" height="35.199" viewBox="0 0 35.199 35.199">
  <path id="Caminho_442" data-name="Caminho 442" d="M17.755,963.374a3.312,3.312,0,0,0-2.468,1.2l-3.159,3.61A5.6,5.6,0,0,0,11,971.948c0,4.552,3.224,11.261,9.293,17.331s12.78,9.293,17.331,9.293a5.562,5.562,0,0,0,3.751-1.128l3.61-3.159a3.323,3.323,0,0,0,1.213-2.468,3.436,3.436,0,0,0-1.17-2.468l-4.964-4.964a3.152,3.152,0,0,0-4.879,0s-1.9,1.889-1.937,1.926c-.366.349-.66.392-1,.19l-9.194-9.194c-.319-.319-.063-.651.134-.913.047-.063,1.981-2.006,1.981-2.006a3.142,3.142,0,0,0,0-4.893l-4.964-4.964A3.393,3.393,0,0,0,17.755,963.374Zm1.185,2.44,4.964,4.964c.506.506.635.671.635,1.17s-.186.708-.635,1.157c0,0-1.936,1.943-1.992,2.007a2.96,2.96,0,0,0-.744,1.42,2.283,2.283,0,0,0,.479,1.918l9.476,9.476a2.5,2.5,0,0,0,1.918.479,2.883,2.883,0,0,0,1.384-.725c.07-.061,2.028-2.011,2.028-2.011.449-.449.678-.635,1.17-.635s.664.129,1.17.635l4.964,4.964a1.811,1.811,0,0,1,.635,1.142c-.015.708-.045.663-.592,1.142l-3.61,3.159a4.142,4.142,0,0,1-2.567.691c-3.646,0-10.247-2.957-16.062-8.771s-8.757-12.4-8.757-16.048a4.147,4.147,0,0,1,.677-2.566l3.159-3.61a1.5,1.5,0,0,1,1.128-.6A1.83,1.83,0,0,1,18.939,965.814Z" transform="translate(-11 -963.374)" fill="#fff"/>
</svg>
