<svg xmlns="http://www.w3.org/2000/svg" width="53.834" height="63.087" viewBox="0 0 53.834 63.087">
  <g id="Grupo_1187" data-name="Grupo 1187" transform="translate(-1042.782 -1655.667)">
    <g id="Grupo_1186" data-name="Grupo 1186" transform="translate(1032.252 1651.687)">
      <path id="Caminho_387" data-name="Caminho 387" d="M10.53,29.568a16.287,16.287,0,1,1,.007.02Zm2.662,0a7.633,7.633,0,1,0,7.66-7.607h-.027A7.64,7.64,0,0,0,13.2,29.588ZM25.038,10.855a15.425,15.425,0,1,1,.007.013Zm2.662,0a4.226,4.226,0,1,0,4.253-4.2h-.02a4.226,4.226,0,0,0-4.226,4.213Z" transform="translate(0 0)" fill="#ffd45e"/>
      <path id="Caminho_388" data-name="Caminho 388" d="M65.847,49.852v5.883a3.474,3.474,0,0,1-3.474,3.474h-1.4C57.861,66,54.58,68.586,53.143,69.458v3.667a2.4,2.4,0,0,1-2.4,2.4H42.847a2.4,2.4,0,0,1-2.4-2.4h0v-2H36.019v2a2.4,2.4,0,0,1-2.4,2.4H26.889a2.4,2.4,0,0,1-2.4-2.243,16.054,16.054,0,0,0-.572-3.507c-.772-2.469-2.349-4.432-3.993-6.509-2.436-3-4.965-6.116-4.965-10.881a1.331,1.331,0,1,1,2.662,0c0,3.827,2.1,6.449,4.332,9.224a22.661,22.661,0,0,1,4.479,7.38,17.876,17.876,0,0,1,.666,3.88h6.222v-2a2.4,2.4,0,0,1,2.4-2.4h4.951a2.4,2.4,0,0,1,2.429,2.375v2.024h7.374V69.3a2.389,2.389,0,0,1,1.191-2.07c.912-.526,4.126-2.782,7.214-9.883a1.331,1.331,0,0,1,1.218-.8H62.38a.812.812,0,0,0,.812-.812h0v-5.89a.812.812,0,0,0-.812-.812H59.718a1.332,1.332,0,0,1-1.331-1.051s-.945-4.046-5.557-7.806a1.335,1.335,0,0,1-.453-.732c-.047-.186-1.012-4.485,1.238-7.494-1.211-.359-3.254.725-5.564,2.968a1.332,1.332,0,0,1-1.6.186c-.04,0-4.326-2.456-8.405-.379a1.332,1.332,0,1,1-1.2-2.376,11.852,11.852,0,0,1,10.056,0c4.093-3.64,6.768-3.441,8.319-2.582A2.367,2.367,0,0,1,56.4,31.411a2.448,2.448,0,0,1-.526,2c-1.331,1.577-1.1,4.06-.965,5.031a19.323,19.323,0,0,1,5.77,7.939h1.7A3.474,3.474,0,0,1,65.847,49.852Z" transform="translate(-1.483 -8.453)" fill="#00808f"/>
    </g>
  </g>
</svg>
