<svg xmlns="http://www.w3.org/2000/svg" width="59.614" height="61" viewBox="0 0 59.614 61">
  <g id="Grupo_1192" data-name="Grupo 1192" transform="translate(91.656 -18.701)">
    <path id="Caminho_391" data-name="Caminho 391" d="M-83.475,88.587h45.706a4.146,4.146,0,0,0,4.181-4.181V56.7H-87.656V84.407A4.146,4.146,0,0,0-83.475,88.587Z" transform="translate(-1.227 -11.659)" fill="none"/>
    <path id="Caminho_392" data-name="Caminho 392" d="M-34.815,84.407A4.146,4.146,0,0,1-39,88.587H-84.7a4.146,4.146,0,0,1-4.181-4.181V56.7h-2.773V84.407A6.97,6.97,0,0,0-84.7,91.36H-39a6.97,6.97,0,0,0,6.954-6.953V56.7h-2.773Z" transform="translate(0 -11.659)" fill="#00808f"/>
    <circle id="Elipse_23" data-name="Elipse 23" cx="2.773" cy="2.773" r="2.773" transform="translate(-77.814 31.178)" fill="#ed1515"/>
    <circle id="Elipse_24" data-name="Elipse 24" cx="2.773" cy="2.773" r="2.773" transform="translate(-51.473 31.178)" fill="#ed1515"/>
    <path id="Caminho_393" data-name="Caminho 393" d="M-70.143,39.5a5.567,5.567,0,0,1-5.545-5.545A5.562,5.562,0,0,1-71.529,28.6V20.087A1.386,1.386,0,0,1-70.143,18.7a1.386,1.386,0,0,1,1.386,1.386V28.6A5.561,5.561,0,0,1-64.6,33.951,5.566,5.566,0,0,1-70.143,39.5Zm4.181-15.25a1.386,1.386,0,0,1,1.386-1.386h15.25a1.386,1.386,0,0,1,1.386,1.386,1.386,1.386,0,0,1-1.386,1.386h-15.25A1.386,1.386,0,0,1-65.961,24.246Zm27.705,9.7A5.566,5.566,0,0,1-43.8,39.5a5.567,5.567,0,0,1-5.545-5.545A5.562,5.562,0,0,1-45.188,28.6V20.087A1.386,1.386,0,0,1-43.8,18.7a1.386,1.386,0,0,1,1.386,1.386V28.6A5.561,5.561,0,0,1-38.256,33.951Z" transform="translate(-4.899 0)" fill="#ffd45e"/>
    <path id="Caminho_394" data-name="Caminho 394" d="M-39,24.7h-4.137a1.443,1.443,0,0,0-1.409,1.386,1.443,1.443,0,0,0,1.409,1.386H-39a4.146,4.146,0,0,1,4.181,4.181V44.11H-88.883V31.654A4.146,4.146,0,0,1-84.7,27.474h4.138a1.443,1.443,0,0,0,1.408-1.386A1.443,1.443,0,0,0-80.565,24.7H-84.7a6.97,6.97,0,0,0-6.953,6.953V46.883h59.614V31.654A6.97,6.97,0,0,0-39,24.7Z" transform="translate(0 -1.841)" fill="#ffd45e"/>
    <g id="Grupo_1191" data-name="Grupo 1191" transform="translate(-54.246 18.701)">
      <circle id="Elipse_25" data-name="Elipse 25" cx="2.773" cy="2.773" r="2.773" transform="translate(2.773 12.477)" fill="#fff"/>
      <path id="Caminho_395" data-name="Caminho 395" d="M-30.756,28.6V20.087A1.386,1.386,0,0,0-32.143,18.7a1.386,1.386,0,0,0-1.386,1.386V28.6a5.562,5.562,0,0,0-4.159,5.351A5.567,5.567,0,0,0-32.143,39.5,5.566,5.566,0,0,0-26.6,33.951,5.561,5.561,0,0,0-30.756,28.6Zm-1.386,8.123a2.752,2.752,0,0,1-2.773-2.773,2.752,2.752,0,0,1,2.773-2.773,2.752,2.752,0,0,1,2.773,2.773A2.752,2.752,0,0,1-32.143,36.724Z" transform="translate(37.688 -18.701)" fill="#ffd45e"/>
    </g>
    <path id="Caminho_396" data-name="Caminho 396" d="M-68.915,42.246a2.752,2.752,0,0,1-2.773-2.773A2.752,2.752,0,0,1-68.915,36.7a2.752,2.752,0,0,1,2.773,2.773A2.752,2.752,0,0,1-68.915,42.246Z" transform="translate(-6.127 -5.523)" fill="#fff"/>
    <path id="Caminho_397" data-name="Caminho 397" d="M-43.633,26.087A1.386,1.386,0,0,0-45.02,24.7H-60.27a1.386,1.386,0,0,0-1.386,1.386,1.386,1.386,0,0,0,1.386,1.386h15.25A1.386,1.386,0,0,0-43.633,26.087Z" transform="translate(-9.205 -1.841)" fill="#ffd45e"/>
  </g>
</svg>
