<svg xmlns="http://www.w3.org/2000/svg" width="64.902" height="51.385" viewBox="0 0 64.902 51.385">
  <g id="np_finance_1016300_000000" transform="translate(-0.938 -11.094)">
    <path id="Caminho_517" data-name="Caminho 517" d="M19.393,33.594a3.981,3.981,0,0,0-3.611,3.715,3.716,3.716,0,0,0,7.429,0,3.425,3.425,0,0,0-1.238-2.58A3.459,3.459,0,0,0,19.393,33.594Zm1.857,5.469a2.774,2.774,0,0,1-1.857.825,2.993,2.993,0,0,1-1.857-.825,2.774,2.774,0,0,1-.825-1.857,2.972,2.972,0,0,1,2.683-2.683,2.753,2.753,0,0,1,1.754.825,2.92,2.92,0,0,1,.929,1.857,2.584,2.584,0,0,1-.825,1.857Z" transform="translate(-5.041 -7.642)" fill="#ffd45e"/>
    <path id="Caminho_518" data-name="Caminho 518" d="M76.787,33.594a4.106,4.106,0,0,0-2.58,1.135,3.821,3.821,0,0,0-1.238,2.58,3.716,3.716,0,0,0,7.429,0A3.9,3.9,0,0,0,76.787,33.594Zm1.754,5.469a2.774,2.774,0,0,1-1.857.825,2.543,2.543,0,0,1-1.754-.825,2.774,2.774,0,0,1-.825-1.857,2.5,2.5,0,0,1,.929-1.857,2.543,2.543,0,0,1,1.754-.825,3.173,3.173,0,0,1,2.683,2.683A3.2,3.2,0,0,1,78.541,39.063Z" transform="translate(-24.464 -7.642)" fill="#ffd45e"/>
    <path id="Caminho_519" data-name="Caminho 519" d="M47.826,32.974l-.722-.206c-1.548-.619-3.1-1.341-3.3-2.58a2.286,2.286,0,0,1,1.651-2.27,7.251,7.251,0,0,1,4.334.413,1.256,1.256,0,0,0,1.651-.722,1.347,1.347,0,0,0-.722-1.651,24.1,24.1,0,0,0-2.58-.722V24a1.341,1.341,0,1,0-2.683,0v1.238a1.944,1.944,0,0,0-.825.206,4.685,4.685,0,0,0-3.4,5.056c.413,2.889,3.508,4.024,5.056,4.643l.619.206a7.255,7.255,0,0,1,2.373,1.135,2.2,2.2,0,0,1,.722,1.651,2.154,2.154,0,0,1-.825,1.651,4.468,4.468,0,0,1-2.476.929A10.9,10.9,0,0,1,43.7,40.4c-.31-.1-.619-.1-.825-.206a1.305,1.305,0,0,0-.825,2.476,3.71,3.71,0,0,0,1.135.206c.825.1,1.548.206,2.27.31v1.135a1.341,1.341,0,0,0,2.683,0V42.983a5.183,5.183,0,0,0,2.786-1.445,4.724,4.724,0,0,0,1.651-3.508,5.006,5.006,0,0,0-1.548-3.611,13.051,13.051,0,0,0-3.2-1.445Z" transform="translate(-13.664 -3.927)" fill="#ffd45e"/>
    <path id="Caminho_520" data-name="Caminho 520" d="M5.091,77.579h58.3a1.366,1.366,0,0,0,1.341-1.341A1.192,1.192,0,0,0,63.492,75H5.091a1.366,1.366,0,0,0-1.341,1.341,1.28,1.28,0,0,0,1.341,1.238Z" transform="translate(-0.955 -21.704)" fill="#00808f"/>
    <path id="Caminho_521" data-name="Caminho 521" d="M5.091,87.526h58.3a1.341,1.341,0,0,0,0-2.683H5.091a1.341,1.341,0,0,0,0,2.683Z" transform="translate(-0.955 -25.048)" fill="#00808f"/>
    <path id="Caminho_522" data-name="Caminho 522" d="M59.855,11.094H6.819A5.879,5.879,0,0,0,.938,16.975V43.8a5.879,5.879,0,0,0,5.881,5.881H59.958A5.879,5.879,0,0,0,65.84,43.8V16.975a6.036,6.036,0,0,0-5.985-5.881Zm3.3,32.709a3.26,3.26,0,0,1-3.3,3.3H6.819a3.26,3.26,0,0,1-3.3-3.3V16.975a3.26,3.26,0,0,1,3.3-3.3H59.958a3.26,3.26,0,0,1,3.3,3.3V43.8Z" fill="#00808f"/>
  </g>
</svg>
